<?xml version="1.0" encoding="iso-8859-1"?>
<!-- Generator: Adobe Illustrator 16.0.0, SVG Export Plug-In . SVG Version: 6.00 Build 0)  -->
<!DOCTYPE svg PUBLIC "-//W3C//DTD SVG 1.1//EN" "http://www.w3.org/Graphics/SVG/1.1/DTD/svg11.dtd">
<svg version="1.1" id="Capa_1" xmlns="http://www.w3.org/2000/svg" xmlns:xlink="http://www.w3.org/1999/xlink" x="0px" y="0px"
   width="56.616px" height="56.616px" viewBox="0 0 56.616 56.616" style="enable-background:new 0 0 56.616 56.616;"
   xml:space="preserve">
<g>
  <g>
    <g>
      <path d="M2.336,21.775C1.042,21.775,0,25.333,0,26.837s1.042,5.062,2.336,5.062h1.376l7.57,14.229h5.893l-5.047-13.559
        c14.152,2.399,25.244,10.618,25.244,10.618V30.662v-7.649V10.488c0,0-15.182,11.289-32.701,11.289L2.336,21.775L2.336,21.775z"
        fill="#ccc" />
      <path d="M39.708,22.165v9.344c2.259,0,4.088-2.092,4.088-4.672C43.796,24.258,41.967,22.165,39.708,22.165z"
        fill="#ccc" />
    </g>
    <g>
      <g>
        <path d="M45.581,26.657c0-0.677,0.547-1.224,1.227-1.224h8.586c0.68,0,1.223,0.546,1.223,1.224c0,0.68-0.547,1.229-1.223,1.229
          h-8.586C46.127,27.885,45.581,27.336,45.581,26.657z"
          fill="#ccc" />
      </g>
      <g>
        <path d="M43.441,18.689c0-0.422,0.224-0.836,0.613-1.061l7.44-4.295c0.587-0.341,1.337-0.14,1.677,0.447
          c0.34,0.584,0.142,1.335-0.447,1.674l-7.44,4.295c-0.584,0.341-1.337,0.141-1.674-0.448
          C43.496,19.107,43.441,18.897,43.441,18.689z"
          fill="#ccc" />
      </g>
      <g>
        <path d="M43.436,34.618c0-0.21,0.055-0.42,0.167-0.611c0.34-0.589,1.088-0.79,1.676-0.45l7.445,4.303
          c0.587,0.344,0.79,1.088,0.447,1.677c-0.337,0.583-1.09,0.784-1.674,0.446l-7.45-4.307
          C43.655,35.452,43.436,35.04,43.436,34.618z"
          fill="#fff" />
      </g>
    </g>
  </g>
</g>
</svg>
